<mxfile host="Electron" agent="Mozilla/5.0 (Windows NT 10.0; Win64; x64) AppleWebKit/537.36 (KHTML, like Gecko) draw.io/26.2.2 Chrome/134.0.6998.178 Electron/35.1.2 Safari/537.36" version="26.2.2">
  <diagram name="Página-1" id="Dgzqg49w7XVf4Nis1xwr">
    <mxGraphModel dx="3656" dy="1682" grid="0" gridSize="10" guides="1" tooltips="1" connect="1" arrows="1" fold="1" page="0" pageScale="1" pageWidth="827" pageHeight="1169" math="0" shadow="0">
      <root>
        <mxCell id="0" />
        <mxCell id="1" parent="0" />
        <mxCell id="oQIdRqJ1LRzrGyN1kCUl-2" value="&amp;lt;&amp;lt;Interface Servico&amp;gt;&amp;gt;&lt;div&gt;Mensagem&lt;/div&gt;" style="swimlane;fontStyle=0;childLayout=stackLayout;horizontal=1;startSize=30;horizontalStack=0;resizeParent=1;resizeParentMax=0;resizeLast=0;collapsible=1;marginBottom=0;whiteSpace=wrap;html=1;" parent="1" vertex="1">
          <mxGeometry x="33" y="266" width="564" height="208" as="geometry" />
        </mxCell>
        <mxCell id="oQIdRqJ1LRzrGyN1kCUl-3" value="+Exibir mensagem de sucesso do cadastro(MensagemSistema):StatusMensagem" style="text;strokeColor=none;fillColor=none;align=left;verticalAlign=middle;spacingLeft=4;spacingRight=4;overflow=hidden;points=[[0,0.5],[1,0.5]];portConstraint=eastwest;rotatable=0;whiteSpace=wrap;html=1;" parent="oQIdRqJ1LRzrGyN1kCUl-2" vertex="1">
          <mxGeometry y="30" width="564" height="30" as="geometry" />
        </mxCell>
        <mxCell id="oQIdRqJ1LRzrGyN1kCUl-21" value="+Exibir mensagem de erro do cadastro(MensagemSistema):StatusMensagem" style="text;strokeColor=none;fillColor=none;align=left;verticalAlign=middle;spacingLeft=4;spacingRight=4;overflow=hidden;points=[[0,0.5],[1,0.5]];portConstraint=eastwest;rotatable=0;whiteSpace=wrap;html=1;" parent="oQIdRqJ1LRzrGyN1kCUl-2" vertex="1">
          <mxGeometry y="60" width="564" height="30" as="geometry" />
        </mxCell>
        <mxCell id="oQIdRqJ1LRzrGyN1kCUl-22" value="+Exibir mensagem de sucesso do login(MensagemSistema):StatusMensagem" style="text;strokeColor=none;fillColor=none;align=left;verticalAlign=middle;spacingLeft=4;spacingRight=4;overflow=hidden;points=[[0,0.5],[1,0.5]];portConstraint=eastwest;rotatable=0;whiteSpace=wrap;html=1;" parent="oQIdRqJ1LRzrGyN1kCUl-2" vertex="1">
          <mxGeometry y="90" width="564" height="30" as="geometry" />
        </mxCell>
        <mxCell id="oQIdRqJ1LRzrGyN1kCUl-23" value="+Exibir mensagem de erro do login(MensagemSistema):StatusMensagem" style="text;strokeColor=none;fillColor=none;align=left;verticalAlign=middle;spacingLeft=4;spacingRight=4;overflow=hidden;points=[[0,0.5],[1,0.5]];portConstraint=eastwest;rotatable=0;whiteSpace=wrap;html=1;" parent="oQIdRqJ1LRzrGyN1kCUl-2" vertex="1">
          <mxGeometry y="120" width="564" height="30" as="geometry" />
        </mxCell>
        <mxCell id="oQIdRqJ1LRzrGyN1kCUl-24" value="+Exibir mensagem de sucesso do cadastro de nova FISPQ(MensagemSistema):StatusMensagem" style="text;strokeColor=none;fillColor=none;align=left;verticalAlign=middle;spacingLeft=4;spacingRight=4;overflow=hidden;points=[[0,0.5],[1,0.5]];portConstraint=eastwest;rotatable=0;whiteSpace=wrap;html=1;" parent="oQIdRqJ1LRzrGyN1kCUl-2" vertex="1">
          <mxGeometry y="150" width="564" height="30" as="geometry" />
        </mxCell>
        <mxCell id="oQIdRqJ1LRzrGyN1kCUl-25" value="+Exibir mensagem de erro do cadastro de nova FISPQ(MensagemSistema):StatusMensagem" style="text;strokeColor=none;fillColor=none;align=left;verticalAlign=middle;spacingLeft=4;spacingRight=4;overflow=hidden;points=[[0,0.5],[1,0.5]];portConstraint=eastwest;rotatable=0;whiteSpace=wrap;html=1;" parent="oQIdRqJ1LRzrGyN1kCUl-2" vertex="1">
          <mxGeometry y="180" width="564" height="28" as="geometry" />
        </mxCell>
        <mxCell id="oQIdRqJ1LRzrGyN1kCUl-19" value="&amp;lt;&amp;lt;Componente Servico&amp;gt;&amp;gt;&lt;div&gt;Exibir mensagem de sucesso do cadastro&lt;/div&gt;" style="swimlane;fontStyle=0;childLayout=stackLayout;horizontal=1;startSize=30;horizontalStack=0;resizeParent=1;resizeParentMax=0;resizeLast=0;collapsible=1;marginBottom=0;whiteSpace=wrap;html=1;" parent="1" vertex="1">
          <mxGeometry x="-718" y="990" width="303" height="60" as="geometry" />
        </mxCell>
        <mxCell id="oQIdRqJ1LRzrGyN1kCUl-20" value="+Exibir Mensagem de sucesso do cadastro()" style="text;strokeColor=none;fillColor=none;align=left;verticalAlign=middle;spacingLeft=4;spacingRight=4;overflow=hidden;points=[[0,0.5],[1,0.5]];portConstraint=eastwest;rotatable=0;whiteSpace=wrap;html=1;" parent="oQIdRqJ1LRzrGyN1kCUl-19" vertex="1">
          <mxGeometry y="30" width="303" height="30" as="geometry" />
        </mxCell>
        <mxCell id="oQIdRqJ1LRzrGyN1kCUl-26" value="&amp;lt;&amp;lt;Mediação&amp;gt;&amp;gt;&lt;div&gt;Mensagem Mediação&lt;/div&gt;" style="swimlane;fontStyle=0;childLayout=stackLayout;horizontal=1;startSize=30;horizontalStack=0;resizeParent=1;resizeParentMax=0;resizeLast=0;collapsible=1;marginBottom=0;whiteSpace=wrap;html=1;" parent="1" vertex="1">
          <mxGeometry x="136" y="572" width="339" height="240" as="geometry" />
        </mxCell>
        <mxCell id="oQIdRqJ1LRzrGyN1kCUl-33" value="&amp;lt;&amp;lt;Interface Servico&amp;gt;&amp;gt; Mensagem" style="text;strokeColor=none;fillColor=none;align=left;verticalAlign=middle;spacingLeft=4;spacingRight=4;overflow=hidden;points=[[0,0.5],[1,0.5]];portConstraint=eastwest;rotatable=0;whiteSpace=wrap;html=1;" parent="oQIdRqJ1LRzrGyN1kCUl-26" vertex="1">
          <mxGeometry y="30" width="339" height="30" as="geometry" />
        </mxCell>
        <mxCell id="oQIdRqJ1LRzrGyN1kCUl-27" value="+Exibir mensagem de sucesso do cadastro()" style="text;strokeColor=none;fillColor=none;align=left;verticalAlign=middle;spacingLeft=4;spacingRight=4;overflow=hidden;points=[[0,0.5],[1,0.5]];portConstraint=eastwest;rotatable=0;whiteSpace=wrap;html=1;" parent="oQIdRqJ1LRzrGyN1kCUl-26" vertex="1">
          <mxGeometry y="60" width="339" height="30" as="geometry" />
        </mxCell>
        <mxCell id="oQIdRqJ1LRzrGyN1kCUl-28" value="+Exibir mensagem de erro do cadastro()" style="text;strokeColor=none;fillColor=none;align=left;verticalAlign=middle;spacingLeft=4;spacingRight=4;overflow=hidden;points=[[0,0.5],[1,0.5]];portConstraint=eastwest;rotatable=0;whiteSpace=wrap;html=1;" parent="oQIdRqJ1LRzrGyN1kCUl-26" vertex="1">
          <mxGeometry y="90" width="339" height="30" as="geometry" />
        </mxCell>
        <mxCell id="oQIdRqJ1LRzrGyN1kCUl-29" value="+Exibir mensagem de sucesso do login()" style="text;strokeColor=none;fillColor=none;align=left;verticalAlign=middle;spacingLeft=4;spacingRight=4;overflow=hidden;points=[[0,0.5],[1,0.5]];portConstraint=eastwest;rotatable=0;whiteSpace=wrap;html=1;" parent="oQIdRqJ1LRzrGyN1kCUl-26" vertex="1">
          <mxGeometry y="120" width="339" height="30" as="geometry" />
        </mxCell>
        <mxCell id="oQIdRqJ1LRzrGyN1kCUl-30" value="+Exibir mensagem de erro do login()" style="text;strokeColor=none;fillColor=none;align=left;verticalAlign=middle;spacingLeft=4;spacingRight=4;overflow=hidden;points=[[0,0.5],[1,0.5]];portConstraint=eastwest;rotatable=0;whiteSpace=wrap;html=1;" parent="oQIdRqJ1LRzrGyN1kCUl-26" vertex="1">
          <mxGeometry y="150" width="339" height="30" as="geometry" />
        </mxCell>
        <mxCell id="oQIdRqJ1LRzrGyN1kCUl-31" value="+Exibir mensagem de sucesso do cadastro de nova FISPQ()" style="text;strokeColor=none;fillColor=none;align=left;verticalAlign=middle;spacingLeft=4;spacingRight=4;overflow=hidden;points=[[0,0.5],[1,0.5]];portConstraint=eastwest;rotatable=0;whiteSpace=wrap;html=1;" parent="oQIdRqJ1LRzrGyN1kCUl-26" vertex="1">
          <mxGeometry y="180" width="339" height="30" as="geometry" />
        </mxCell>
        <mxCell id="oQIdRqJ1LRzrGyN1kCUl-32" value="+Exibir mensagem de erro do cadastro de nova FISPQ()" style="text;strokeColor=none;fillColor=none;align=left;verticalAlign=middle;spacingLeft=4;spacingRight=4;overflow=hidden;points=[[0,0.5],[1,0.5]];portConstraint=eastwest;rotatable=0;whiteSpace=wrap;html=1;" parent="oQIdRqJ1LRzrGyN1kCUl-26" vertex="1">
          <mxGeometry y="210" width="339" height="30" as="geometry" />
        </mxCell>
        <mxCell id="sPVN3oq-gLRM8-vkpct7-4" style="edgeStyle=none;shape=connector;rounded=0;orthogonalLoop=1;jettySize=auto;html=1;exitX=0.5;exitY=0;exitDx=0;exitDy=0;dashed=1;strokeColor=default;align=center;verticalAlign=middle;fontFamily=Helvetica;fontSize=11;fontColor=default;labelBackgroundColor=default;endArrow=none;endFill=0;startArrow=open;startFill=0;strokeWidth=2;" parent="1" source="oQIdRqJ1LRzrGyN1kCUl-36" edge="1">
          <mxGeometry relative="1" as="geometry">
            <mxPoint x="295" y="816" as="targetPoint" />
          </mxGeometry>
        </mxCell>
        <mxCell id="sPVN3oq-gLRM8-vkpct7-22" value="Use" style="edgeLabel;html=1;align=center;verticalAlign=middle;resizable=0;points=[];fontFamily=Helvetica;fontSize=11;fontColor=default;labelBackgroundColor=default;" parent="sPVN3oq-gLRM8-vkpct7-4" vertex="1" connectable="0">
          <mxGeometry x="0.1233" y="1" relative="1" as="geometry">
            <mxPoint as="offset" />
          </mxGeometry>
        </mxCell>
        <mxCell id="sPVN3oq-gLRM8-vkpct7-11" style="edgeStyle=none;shape=connector;rounded=0;orthogonalLoop=1;jettySize=auto;html=1;exitX=0.5;exitY=1;exitDx=0;exitDy=0;entryX=0.5;entryY=0;entryDx=0;entryDy=0;dashed=1;strokeColor=default;strokeWidth=2;align=center;verticalAlign=middle;fontFamily=Helvetica;fontSize=11;fontColor=default;labelBackgroundColor=default;startArrow=none;startFill=0;endArrow=open;endFill=0;" parent="1" source="oQIdRqJ1LRzrGyN1kCUl-36" target="oQIdRqJ1LRzrGyN1kCUl-55" edge="1">
          <mxGeometry relative="1" as="geometry" />
        </mxCell>
        <mxCell id="sPVN3oq-gLRM8-vkpct7-30" value="Use" style="edgeLabel;html=1;align=center;verticalAlign=middle;resizable=0;points=[];fontFamily=Helvetica;fontSize=11;fontColor=default;labelBackgroundColor=default;" parent="sPVN3oq-gLRM8-vkpct7-11" vertex="1" connectable="0">
          <mxGeometry x="-0.2667" y="2" relative="1" as="geometry">
            <mxPoint as="offset" />
          </mxGeometry>
        </mxCell>
        <mxCell id="sPVN3oq-gLRM8-vkpct7-12" style="edgeStyle=none;shape=connector;rounded=0;orthogonalLoop=1;jettySize=auto;html=1;exitX=0.5;exitY=1;exitDx=0;exitDy=0;dashed=1;strokeColor=default;strokeWidth=2;align=center;verticalAlign=middle;fontFamily=Helvetica;fontSize=11;fontColor=default;labelBackgroundColor=default;startArrow=none;startFill=0;endArrow=open;endFill=0;entryX=0.5;entryY=0;entryDx=0;entryDy=0;" parent="1" source="oQIdRqJ1LRzrGyN1kCUl-36" target="oQIdRqJ1LRzrGyN1kCUl-48" edge="1">
          <mxGeometry relative="1" as="geometry">
            <mxPoint x="-65.50000000000001" y="1145.7777777777778" as="targetPoint" />
          </mxGeometry>
        </mxCell>
        <mxCell id="sPVN3oq-gLRM8-vkpct7-29" value="Use" style="edgeLabel;html=1;align=center;verticalAlign=middle;resizable=0;points=[];fontFamily=Helvetica;fontSize=11;fontColor=default;labelBackgroundColor=default;" parent="sPVN3oq-gLRM8-vkpct7-12" vertex="1" connectable="0">
          <mxGeometry x="-0.2482" relative="1" as="geometry">
            <mxPoint as="offset" />
          </mxGeometry>
        </mxCell>
        <mxCell id="oQIdRqJ1LRzrGyN1kCUl-36" value="&amp;lt;&amp;lt;Componente Servico&amp;gt;&amp;gt;&lt;div&gt;Exibir mensagem de erro do cadastro&lt;/div&gt;" style="swimlane;fontStyle=0;childLayout=stackLayout;horizontal=1;startSize=30;horizontalStack=0;resizeParent=1;resizeParentMax=0;resizeLast=0;collapsible=1;marginBottom=0;whiteSpace=wrap;html=1;" parent="1" vertex="1">
          <mxGeometry x="-365" y="990" width="282" height="60" as="geometry" />
        </mxCell>
        <mxCell id="oQIdRqJ1LRzrGyN1kCUl-37" value="+Exibir&amp;nbsp;Mensagem de erro do cadastro()" style="text;strokeColor=none;fillColor=none;align=left;verticalAlign=middle;spacingLeft=4;spacingRight=4;overflow=hidden;points=[[0,0.5],[1,0.5]];portConstraint=eastwest;rotatable=0;whiteSpace=wrap;html=1;" parent="oQIdRqJ1LRzrGyN1kCUl-36" vertex="1">
          <mxGeometry y="30" width="282" height="30" as="geometry" />
        </mxCell>
        <mxCell id="oQIdRqJ1LRzrGyN1kCUl-38" value="&amp;lt;&amp;lt;Componente Servico&amp;gt;&amp;gt;&lt;div&gt;Exibir mensagem de sucesso do login&lt;/div&gt;" style="swimlane;fontStyle=0;childLayout=stackLayout;horizontal=1;startSize=30;horizontalStack=0;resizeParent=1;resizeParentMax=0;resizeLast=0;collapsible=1;marginBottom=0;whiteSpace=wrap;html=1;" parent="1" vertex="1">
          <mxGeometry x="-44" y="990" width="266" height="60" as="geometry" />
        </mxCell>
        <mxCell id="oQIdRqJ1LRzrGyN1kCUl-39" value="+Exibir&amp;nbsp;Mensagem de sucesso do login()" style="text;strokeColor=none;fillColor=none;align=left;verticalAlign=middle;spacingLeft=4;spacingRight=4;overflow=hidden;points=[[0,0.5],[1,0.5]];portConstraint=eastwest;rotatable=0;whiteSpace=wrap;html=1;" parent="oQIdRqJ1LRzrGyN1kCUl-38" vertex="1">
          <mxGeometry y="30" width="266" height="30" as="geometry" />
        </mxCell>
        <mxCell id="sPVN3oq-gLRM8-vkpct7-17" style="edgeStyle=none;shape=connector;rounded=0;orthogonalLoop=1;jettySize=auto;html=1;exitX=0.5;exitY=1;exitDx=0;exitDy=0;dashed=1;strokeColor=default;strokeWidth=2;align=center;verticalAlign=middle;fontFamily=Helvetica;fontSize=11;fontColor=default;labelBackgroundColor=default;endArrow=open;endFill=0;" parent="1" source="oQIdRqJ1LRzrGyN1kCUl-40" edge="1">
          <mxGeometry relative="1" as="geometry">
            <mxPoint x="-6.190476190476147" y="1193.8095238095239" as="targetPoint" />
          </mxGeometry>
        </mxCell>
        <mxCell id="sPVN3oq-gLRM8-vkpct7-33" value="Use" style="edgeLabel;html=1;align=center;verticalAlign=middle;resizable=0;points=[];fontFamily=Helvetica;fontSize=11;fontColor=default;labelBackgroundColor=default;" parent="sPVN3oq-gLRM8-vkpct7-17" vertex="1" connectable="0">
          <mxGeometry x="-0.3167" y="2" relative="1" as="geometry">
            <mxPoint as="offset" />
          </mxGeometry>
        </mxCell>
        <mxCell id="oQIdRqJ1LRzrGyN1kCUl-40" value="&amp;lt;&amp;lt;Componente Servico&amp;gt;&amp;gt;&lt;div&gt;Exibir mensagem de erro do login&lt;/div&gt;" style="swimlane;fontStyle=0;childLayout=stackLayout;horizontal=1;startSize=30;horizontalStack=0;resizeParent=1;resizeParentMax=0;resizeLast=0;collapsible=1;marginBottom=0;whiteSpace=wrap;html=1;" parent="1" vertex="1">
          <mxGeometry x="256" y="990" width="333" height="60" as="geometry" />
        </mxCell>
        <mxCell id="oQIdRqJ1LRzrGyN1kCUl-41" value="+Exibir&amp;nbsp;Mensagem de erro do login()" style="text;strokeColor=none;fillColor=none;align=left;verticalAlign=middle;spacingLeft=4;spacingRight=4;overflow=hidden;points=[[0,0.5],[1,0.5]];portConstraint=eastwest;rotatable=0;whiteSpace=wrap;html=1;" parent="oQIdRqJ1LRzrGyN1kCUl-40" vertex="1">
          <mxGeometry y="30" width="333" height="30" as="geometry" />
        </mxCell>
        <mxCell id="sPVN3oq-gLRM8-vkpct7-6" style="edgeStyle=none;shape=connector;rounded=0;orthogonalLoop=1;jettySize=auto;html=1;exitX=0.5;exitY=0;exitDx=0;exitDy=0;dashed=1;strokeColor=default;strokeWidth=2;align=center;verticalAlign=middle;fontFamily=Helvetica;fontSize=11;fontColor=default;labelBackgroundColor=default;startArrow=open;startFill=0;endArrow=none;endFill=0;" parent="1" source="oQIdRqJ1LRzrGyN1kCUl-42" edge="1">
          <mxGeometry relative="1" as="geometry">
            <mxPoint x="294.7058823529412" y="814.4117647058824" as="targetPoint" />
          </mxGeometry>
        </mxCell>
        <mxCell id="sPVN3oq-gLRM8-vkpct7-25" value="Use" style="edgeLabel;html=1;align=center;verticalAlign=middle;resizable=0;points=[];fontFamily=Helvetica;fontSize=11;fontColor=default;labelBackgroundColor=default;" parent="sPVN3oq-gLRM8-vkpct7-6" vertex="1" connectable="0">
          <mxGeometry x="0.1317" y="2" relative="1" as="geometry">
            <mxPoint as="offset" />
          </mxGeometry>
        </mxCell>
        <mxCell id="oQIdRqJ1LRzrGyN1kCUl-42" value="&amp;lt;&amp;lt;Componente Servico&amp;gt;&amp;gt;&lt;div&gt;Exibir mensagem de sucesso do cadastro de nova FISPQ&lt;/div&gt;" style="swimlane;fontStyle=0;childLayout=stackLayout;horizontal=1;startSize=30;horizontalStack=0;resizeParent=1;resizeParentMax=0;resizeLast=0;collapsible=1;marginBottom=0;whiteSpace=wrap;html=1;" parent="1" vertex="1">
          <mxGeometry x="614" y="990" width="333" height="60" as="geometry" />
        </mxCell>
        <mxCell id="oQIdRqJ1LRzrGyN1kCUl-43" value="+Exibir&amp;nbsp;Mensagem de sucesso do cadastro de nova FISPQ()" style="text;strokeColor=none;fillColor=none;align=left;verticalAlign=middle;spacingLeft=4;spacingRight=4;overflow=hidden;points=[[0,0.5],[1,0.5]];portConstraint=eastwest;rotatable=0;whiteSpace=wrap;html=1;" parent="oQIdRqJ1LRzrGyN1kCUl-42" vertex="1">
          <mxGeometry y="30" width="333" height="30" as="geometry" />
        </mxCell>
        <mxCell id="sPVN3oq-gLRM8-vkpct7-7" style="edgeStyle=none;shape=connector;rounded=0;orthogonalLoop=1;jettySize=auto;html=1;exitX=0.5;exitY=0;exitDx=0;exitDy=0;dashed=1;strokeColor=default;strokeWidth=2;align=center;verticalAlign=middle;fontFamily=Helvetica;fontSize=11;fontColor=default;labelBackgroundColor=default;startArrow=open;startFill=0;endArrow=none;endFill=0;" parent="1" source="oQIdRqJ1LRzrGyN1kCUl-44" edge="1">
          <mxGeometry relative="1" as="geometry">
            <mxPoint x="296.4000000000001" y="814.2" as="targetPoint" />
          </mxGeometry>
        </mxCell>
        <mxCell id="sPVN3oq-gLRM8-vkpct7-26" value="Use" style="edgeLabel;html=1;align=center;verticalAlign=middle;resizable=0;points=[];fontFamily=Helvetica;fontSize=11;fontColor=default;labelBackgroundColor=default;" parent="sPVN3oq-gLRM8-vkpct7-7" vertex="1" connectable="0">
          <mxGeometry x="0.2223" y="1" relative="1" as="geometry">
            <mxPoint as="offset" />
          </mxGeometry>
        </mxCell>
        <mxCell id="oQIdRqJ1LRzrGyN1kCUl-44" value="&amp;lt;&amp;lt;Componente Servico&amp;gt;&amp;gt;&lt;div&gt;Exibir mensagem de erro do cadastro de nova FISPQ&lt;/div&gt;" style="swimlane;fontStyle=0;childLayout=stackLayout;horizontal=1;startSize=30;horizontalStack=0;resizeParent=1;resizeParentMax=0;resizeLast=0;collapsible=1;marginBottom=0;whiteSpace=wrap;html=1;" parent="1" vertex="1">
          <mxGeometry x="981" y="990" width="333" height="60" as="geometry" />
        </mxCell>
        <mxCell id="oQIdRqJ1LRzrGyN1kCUl-45" value="+Exibir&amp;nbsp;Mensagem de erro do cadastro de nova FISPQ()" style="text;strokeColor=none;fillColor=none;align=left;verticalAlign=middle;spacingLeft=4;spacingRight=4;overflow=hidden;points=[[0,0.5],[1,0.5]];portConstraint=eastwest;rotatable=0;whiteSpace=wrap;html=1;" parent="oQIdRqJ1LRzrGyN1kCUl-44" vertex="1">
          <mxGeometry y="30" width="333" height="30" as="geometry" />
        </mxCell>
        <mxCell id="oQIdRqJ1LRzrGyN1kCUl-46" value="&amp;lt;&amp;lt;node&amp;gt;&amp;gt;&lt;div&gt;Banco de Dados&lt;/div&gt;" style="swimlane;fontStyle=0;childLayout=stackLayout;horizontal=1;startSize=30;horizontalStack=0;resizeParent=1;resizeParentMax=0;resizeLast=0;collapsible=1;marginBottom=0;whiteSpace=wrap;html=1;" parent="1" vertex="1">
          <mxGeometry x="165" y="1466" width="164" height="48" as="geometry" />
        </mxCell>
        <mxCell id="sPVN3oq-gLRM8-vkpct7-9" style="edgeStyle=none;shape=connector;rounded=0;orthogonalLoop=1;jettySize=auto;html=1;exitX=0.5;exitY=1;exitDx=0;exitDy=0;dashed=1;strokeColor=default;strokeWidth=2;align=center;verticalAlign=middle;fontFamily=Helvetica;fontSize=11;fontColor=default;labelBackgroundColor=default;startArrow=none;startFill=0;endArrow=open;endFill=0;" parent="1" source="oQIdRqJ1LRzrGyN1kCUl-48" edge="1">
          <mxGeometry relative="1" as="geometry">
            <mxPoint x="247" y="1465.5" as="targetPoint" />
          </mxGeometry>
        </mxCell>
        <mxCell id="2OZh_sbsZ2A8jWy64iFZ-2" value="Use" style="edgeLabel;html=1;align=center;verticalAlign=middle;resizable=0;points=[];" vertex="1" connectable="0" parent="sPVN3oq-gLRM8-vkpct7-9">
          <mxGeometry x="-0.1899" relative="1" as="geometry">
            <mxPoint as="offset" />
          </mxGeometry>
        </mxCell>
        <mxCell id="oQIdRqJ1LRzrGyN1kCUl-48" value="&amp;lt;&amp;lt;Classe&amp;gt;&amp;gt;&lt;div&gt;Funcionario&lt;/div&gt;" style="swimlane;fontStyle=0;childLayout=stackLayout;horizontal=1;startSize=30;horizontalStack=0;resizeParent=1;resizeParentMax=0;resizeLast=0;collapsible=1;marginBottom=0;whiteSpace=wrap;html=1;" parent="1" vertex="1">
          <mxGeometry x="177" y="1195" width="140" height="150" as="geometry" />
        </mxCell>
        <mxCell id="oQIdRqJ1LRzrGyN1kCUl-49" value="+Criar()" style="text;strokeColor=none;fillColor=none;align=left;verticalAlign=middle;spacingLeft=4;spacingRight=4;overflow=hidden;points=[[0,0.5],[1,0.5]];portConstraint=eastwest;rotatable=0;whiteSpace=wrap;html=1;" parent="oQIdRqJ1LRzrGyN1kCUl-48" vertex="1">
          <mxGeometry y="30" width="140" height="30" as="geometry" />
        </mxCell>
        <mxCell id="oQIdRqJ1LRzrGyN1kCUl-50" value="+Atualizar()" style="text;strokeColor=none;fillColor=none;align=left;verticalAlign=middle;spacingLeft=4;spacingRight=4;overflow=hidden;points=[[0,0.5],[1,0.5]];portConstraint=eastwest;rotatable=0;whiteSpace=wrap;html=1;" parent="oQIdRqJ1LRzrGyN1kCUl-48" vertex="1">
          <mxGeometry y="60" width="140" height="30" as="geometry" />
        </mxCell>
        <mxCell id="oQIdRqJ1LRzrGyN1kCUl-51" value="+Buscar()" style="text;strokeColor=none;fillColor=none;align=left;verticalAlign=middle;spacingLeft=4;spacingRight=4;overflow=hidden;points=[[0,0.5],[1,0.5]];portConstraint=eastwest;rotatable=0;whiteSpace=wrap;html=1;" parent="oQIdRqJ1LRzrGyN1kCUl-48" vertex="1">
          <mxGeometry y="90" width="140" height="30" as="geometry" />
        </mxCell>
        <mxCell id="oQIdRqJ1LRzrGyN1kCUl-54" value="+Remover()" style="text;strokeColor=none;fillColor=none;align=left;verticalAlign=middle;spacingLeft=4;spacingRight=4;overflow=hidden;points=[[0,0.5],[1,0.5]];portConstraint=eastwest;rotatable=0;whiteSpace=wrap;html=1;" parent="oQIdRqJ1LRzrGyN1kCUl-48" vertex="1">
          <mxGeometry y="120" width="140" height="30" as="geometry" />
        </mxCell>
        <mxCell id="oQIdRqJ1LRzrGyN1kCUl-55" value="&amp;lt;&amp;lt;Classe&amp;gt;&amp;gt;&lt;div&gt;Gestor&lt;/div&gt;" style="swimlane;fontStyle=0;childLayout=stackLayout;horizontal=1;startSize=30;horizontalStack=0;resizeParent=1;resizeParentMax=0;resizeLast=0;collapsible=1;marginBottom=0;whiteSpace=wrap;html=1;" parent="1" vertex="1">
          <mxGeometry x="-76" y="1195" width="140" height="150" as="geometry" />
        </mxCell>
        <mxCell id="oQIdRqJ1LRzrGyN1kCUl-56" value="+Criar()" style="text;strokeColor=none;fillColor=none;align=left;verticalAlign=middle;spacingLeft=4;spacingRight=4;overflow=hidden;points=[[0,0.5],[1,0.5]];portConstraint=eastwest;rotatable=0;whiteSpace=wrap;html=1;" parent="oQIdRqJ1LRzrGyN1kCUl-55" vertex="1">
          <mxGeometry y="30" width="140" height="30" as="geometry" />
        </mxCell>
        <mxCell id="oQIdRqJ1LRzrGyN1kCUl-57" value="+Atualizar()" style="text;strokeColor=none;fillColor=none;align=left;verticalAlign=middle;spacingLeft=4;spacingRight=4;overflow=hidden;points=[[0,0.5],[1,0.5]];portConstraint=eastwest;rotatable=0;whiteSpace=wrap;html=1;" parent="oQIdRqJ1LRzrGyN1kCUl-55" vertex="1">
          <mxGeometry y="60" width="140" height="30" as="geometry" />
        </mxCell>
        <mxCell id="oQIdRqJ1LRzrGyN1kCUl-58" value="+Buscar()" style="text;strokeColor=none;fillColor=none;align=left;verticalAlign=middle;spacingLeft=4;spacingRight=4;overflow=hidden;points=[[0,0.5],[1,0.5]];portConstraint=eastwest;rotatable=0;whiteSpace=wrap;html=1;" parent="oQIdRqJ1LRzrGyN1kCUl-55" vertex="1">
          <mxGeometry y="90" width="140" height="30" as="geometry" />
        </mxCell>
        <mxCell id="oQIdRqJ1LRzrGyN1kCUl-59" value="+Remover()" style="text;strokeColor=none;fillColor=none;align=left;verticalAlign=middle;spacingLeft=4;spacingRight=4;overflow=hidden;points=[[0,0.5],[1,0.5]];portConstraint=eastwest;rotatable=0;whiteSpace=wrap;html=1;" parent="oQIdRqJ1LRzrGyN1kCUl-55" vertex="1">
          <mxGeometry y="120" width="140" height="30" as="geometry" />
        </mxCell>
        <mxCell id="oQIdRqJ1LRzrGyN1kCUl-60" value="&amp;lt;&amp;lt;Classe&amp;gt;&amp;gt;&lt;div&gt;FISPQ&lt;/div&gt;" style="swimlane;fontStyle=0;childLayout=stackLayout;horizontal=1;startSize=30;horizontalStack=0;resizeParent=1;resizeParentMax=0;resizeLast=0;collapsible=1;marginBottom=0;whiteSpace=wrap;html=1;" parent="1" vertex="1">
          <mxGeometry x="435" y="1195" width="140" height="150" as="geometry" />
        </mxCell>
        <mxCell id="oQIdRqJ1LRzrGyN1kCUl-61" value="+Criar()" style="text;strokeColor=none;fillColor=none;align=left;verticalAlign=middle;spacingLeft=4;spacingRight=4;overflow=hidden;points=[[0,0.5],[1,0.5]];portConstraint=eastwest;rotatable=0;whiteSpace=wrap;html=1;" parent="oQIdRqJ1LRzrGyN1kCUl-60" vertex="1">
          <mxGeometry y="30" width="140" height="30" as="geometry" />
        </mxCell>
        <mxCell id="oQIdRqJ1LRzrGyN1kCUl-62" value="+Atualizar()" style="text;strokeColor=none;fillColor=none;align=left;verticalAlign=middle;spacingLeft=4;spacingRight=4;overflow=hidden;points=[[0,0.5],[1,0.5]];portConstraint=eastwest;rotatable=0;whiteSpace=wrap;html=1;" parent="oQIdRqJ1LRzrGyN1kCUl-60" vertex="1">
          <mxGeometry y="60" width="140" height="30" as="geometry" />
        </mxCell>
        <mxCell id="oQIdRqJ1LRzrGyN1kCUl-63" value="+Buscar()" style="text;strokeColor=none;fillColor=none;align=left;verticalAlign=middle;spacingLeft=4;spacingRight=4;overflow=hidden;points=[[0,0.5],[1,0.5]];portConstraint=eastwest;rotatable=0;whiteSpace=wrap;html=1;" parent="oQIdRqJ1LRzrGyN1kCUl-60" vertex="1">
          <mxGeometry y="90" width="140" height="30" as="geometry" />
        </mxCell>
        <mxCell id="oQIdRqJ1LRzrGyN1kCUl-64" value="+Remover()" style="text;strokeColor=none;fillColor=none;align=left;verticalAlign=middle;spacingLeft=4;spacingRight=4;overflow=hidden;points=[[0,0.5],[1,0.5]];portConstraint=eastwest;rotatable=0;whiteSpace=wrap;html=1;" parent="oQIdRqJ1LRzrGyN1kCUl-60" vertex="1">
          <mxGeometry y="120" width="140" height="30" as="geometry" />
        </mxCell>
        <mxCell id="oQIdRqJ1LRzrGyN1kCUl-80" value="" style="endArrow=none;dashed=1;html=1;strokeWidth=2;rounded=0;fontSize=12;startSize=8;endSize=8;curved=1;exitX=0.5;exitY=0;exitDx=0;exitDy=0;startArrow=open;startFill=0;" parent="1" source="oQIdRqJ1LRzrGyN1kCUl-19" edge="1">
          <mxGeometry width="50" height="50" relative="1" as="geometry">
            <mxPoint x="-345" y="935" as="sourcePoint" />
            <mxPoint x="295" y="815" as="targetPoint" />
          </mxGeometry>
        </mxCell>
        <mxCell id="sPVN3oq-gLRM8-vkpct7-23" value="Use" style="edgeLabel;html=1;align=center;verticalAlign=middle;resizable=0;points=[];fontFamily=Helvetica;fontSize=11;fontColor=default;labelBackgroundColor=default;" parent="oQIdRqJ1LRzrGyN1kCUl-80" vertex="1" connectable="0">
          <mxGeometry x="0.1979" relative="1" as="geometry">
            <mxPoint as="offset" />
          </mxGeometry>
        </mxCell>
        <mxCell id="oQIdRqJ1LRzrGyN1kCUl-84" value="" style="endArrow=none;dashed=1;html=1;strokeWidth=2;rounded=0;fontSize=12;startSize=8;endSize=8;curved=1;exitX=0.5;exitY=0;exitDx=0;exitDy=0;startArrow=open;startFill=0;" parent="1" source="oQIdRqJ1LRzrGyN1kCUl-40" edge="1">
          <mxGeometry width="50" height="50" relative="1" as="geometry">
            <mxPoint x="555" y="1046" as="sourcePoint" />
            <mxPoint x="294" y="812" as="targetPoint" />
          </mxGeometry>
        </mxCell>
        <mxCell id="sPVN3oq-gLRM8-vkpct7-24" value="Use" style="edgeLabel;html=1;align=center;verticalAlign=middle;resizable=0;points=[];fontFamily=Helvetica;fontSize=11;fontColor=default;labelBackgroundColor=default;" parent="oQIdRqJ1LRzrGyN1kCUl-84" vertex="1" connectable="0">
          <mxGeometry x="-0.0427" relative="1" as="geometry">
            <mxPoint as="offset" />
          </mxGeometry>
        </mxCell>
        <mxCell id="oQIdRqJ1LRzrGyN1kCUl-86" value="" style="endArrow=none;dashed=1;html=1;strokeWidth=2;rounded=0;fontSize=12;startSize=8;endSize=8;curved=1;exitX=0.5;exitY=0;exitDx=0;exitDy=0;startArrow=open;startFill=0;" parent="1" source="oQIdRqJ1LRzrGyN1kCUl-38" edge="1">
          <mxGeometry width="50" height="50" relative="1" as="geometry">
            <mxPoint x="536" y="1075" as="sourcePoint" />
            <mxPoint x="297" y="817" as="targetPoint" />
          </mxGeometry>
        </mxCell>
        <mxCell id="sPVN3oq-gLRM8-vkpct7-21" value="Use" style="edgeLabel;html=1;align=center;verticalAlign=middle;resizable=0;points=[];fontFamily=Helvetica;fontSize=11;fontColor=default;labelBackgroundColor=default;" parent="oQIdRqJ1LRzrGyN1kCUl-86" vertex="1" connectable="0">
          <mxGeometry x="-0.1069" y="-1" relative="1" as="geometry">
            <mxPoint as="offset" />
          </mxGeometry>
        </mxCell>
        <mxCell id="oQIdRqJ1LRzrGyN1kCUl-92" value="" style="endArrow=none;dashed=1;html=1;strokeWidth=2;rounded=0;fontSize=12;startSize=8;endSize=8;curved=1;entryX=0.5;entryY=0;entryDx=0;entryDy=0;startArrow=block;startFill=0;exitX=0.485;exitY=0.983;exitDx=0;exitDy=0;exitPerimeter=0;" parent="1" source="oQIdRqJ1LRzrGyN1kCUl-25" target="oQIdRqJ1LRzrGyN1kCUl-26" edge="1">
          <mxGeometry width="50" height="50" relative="1" as="geometry">
            <mxPoint x="309" y="303" as="sourcePoint" />
            <mxPoint x="653.0019999999997" y="341.9999999999999" as="targetPoint" />
          </mxGeometry>
        </mxCell>
        <mxCell id="sPVN3oq-gLRM8-vkpct7-8" style="edgeStyle=none;shape=connector;rounded=0;orthogonalLoop=1;jettySize=auto;html=1;exitX=0.5;exitY=1;exitDx=0;exitDy=0;entryX=0.415;entryY=-0.021;entryDx=0;entryDy=0;entryPerimeter=0;dashed=1;strokeColor=default;strokeWidth=2;align=center;verticalAlign=middle;fontFamily=Helvetica;fontSize=11;fontColor=default;labelBackgroundColor=default;startArrow=none;startFill=0;endArrow=open;endFill=0;" parent="1" source="oQIdRqJ1LRzrGyN1kCUl-55" target="oQIdRqJ1LRzrGyN1kCUl-46" edge="1">
          <mxGeometry relative="1" as="geometry" />
        </mxCell>
        <mxCell id="2OZh_sbsZ2A8jWy64iFZ-1" value="Use" style="edgeLabel;html=1;align=center;verticalAlign=middle;resizable=0;points=[];" vertex="1" connectable="0" parent="sPVN3oq-gLRM8-vkpct7-8">
          <mxGeometry x="-0.018" y="1" relative="1" as="geometry">
            <mxPoint as="offset" />
          </mxGeometry>
        </mxCell>
        <mxCell id="sPVN3oq-gLRM8-vkpct7-10" style="edgeStyle=none;shape=connector;rounded=0;orthogonalLoop=1;jettySize=auto;html=1;exitX=0.5;exitY=1;exitDx=0;exitDy=0;entryX=0.61;entryY=-0.021;entryDx=0;entryDy=0;entryPerimeter=0;dashed=1;strokeColor=default;strokeWidth=2;align=center;verticalAlign=middle;fontFamily=Helvetica;fontSize=11;fontColor=default;labelBackgroundColor=default;startArrow=none;startFill=0;endArrow=open;endFill=0;" parent="1" source="oQIdRqJ1LRzrGyN1kCUl-60" target="oQIdRqJ1LRzrGyN1kCUl-46" edge="1">
          <mxGeometry relative="1" as="geometry" />
        </mxCell>
        <mxCell id="2OZh_sbsZ2A8jWy64iFZ-3" value="Use" style="edgeLabel;html=1;align=center;verticalAlign=middle;resizable=0;points=[];" vertex="1" connectable="0" parent="sPVN3oq-gLRM8-vkpct7-10">
          <mxGeometry x="0.1994" y="1" relative="1" as="geometry">
            <mxPoint as="offset" />
          </mxGeometry>
        </mxCell>
        <mxCell id="sPVN3oq-gLRM8-vkpct7-13" value="" style="endArrow=open;html=1;rounded=0;dashed=1;strokeColor=default;strokeWidth=2;align=center;verticalAlign=middle;fontFamily=Helvetica;fontSize=11;fontColor=default;labelBackgroundColor=default;edgeStyle=none;endFill=0;exitX=0.517;exitY=1;exitDx=0;exitDy=0;exitPerimeter=0;entryX=0.5;entryY=0;entryDx=0;entryDy=0;" parent="1" source="oQIdRqJ1LRzrGyN1kCUl-20" target="oQIdRqJ1LRzrGyN1kCUl-55" edge="1">
          <mxGeometry width="50" height="50" relative="1" as="geometry">
            <mxPoint x="-379" y="1105" as="sourcePoint" />
            <mxPoint x="-312" y="1121" as="targetPoint" />
          </mxGeometry>
        </mxCell>
        <mxCell id="sPVN3oq-gLRM8-vkpct7-27" value="Use" style="edgeLabel;html=1;align=center;verticalAlign=middle;resizable=0;points=[];fontFamily=Helvetica;fontSize=11;fontColor=default;labelBackgroundColor=default;" parent="sPVN3oq-gLRM8-vkpct7-13" vertex="1" connectable="0">
          <mxGeometry x="0.2288" y="-3" relative="1" as="geometry">
            <mxPoint as="offset" />
          </mxGeometry>
        </mxCell>
        <mxCell id="sPVN3oq-gLRM8-vkpct7-14" value="" style="endArrow=open;html=1;rounded=0;dashed=1;strokeColor=default;strokeWidth=2;align=center;verticalAlign=middle;fontFamily=Helvetica;fontSize=11;fontColor=default;labelBackgroundColor=default;edgeStyle=none;endFill=0;entryX=0.5;entryY=0;entryDx=0;entryDy=0;exitX=0.524;exitY=1.044;exitDx=0;exitDy=0;exitPerimeter=0;" parent="1" source="oQIdRqJ1LRzrGyN1kCUl-20" target="oQIdRqJ1LRzrGyN1kCUl-48" edge="1">
          <mxGeometry width="50" height="50" relative="1" as="geometry">
            <mxPoint x="-278" y="1086" as="sourcePoint" />
            <mxPoint x="20" y="1142" as="targetPoint" />
          </mxGeometry>
        </mxCell>
        <mxCell id="sPVN3oq-gLRM8-vkpct7-28" value="Use" style="edgeLabel;html=1;align=center;verticalAlign=middle;resizable=0;points=[];fontFamily=Helvetica;fontSize=11;fontColor=default;labelBackgroundColor=default;" parent="sPVN3oq-gLRM8-vkpct7-14" vertex="1" connectable="0">
          <mxGeometry x="-0.1537" relative="1" as="geometry">
            <mxPoint as="offset" />
          </mxGeometry>
        </mxCell>
        <mxCell id="sPVN3oq-gLRM8-vkpct7-15" value="" style="endArrow=open;html=1;rounded=0;dashed=1;strokeColor=default;strokeWidth=2;align=center;verticalAlign=middle;fontFamily=Helvetica;fontSize=11;fontColor=default;labelBackgroundColor=default;edgeStyle=none;exitX=0.5;exitY=1.027;exitDx=0;exitDy=0;exitPerimeter=0;endFill=0;entryX=0.5;entryY=0;entryDx=0;entryDy=0;" parent="1" source="oQIdRqJ1LRzrGyN1kCUl-39" target="oQIdRqJ1LRzrGyN1kCUl-55" edge="1">
          <mxGeometry width="50" height="50" relative="1" as="geometry">
            <mxPoint x="81" y="1125" as="sourcePoint" />
            <mxPoint x="-7" y="1194" as="targetPoint" />
          </mxGeometry>
        </mxCell>
        <mxCell id="sPVN3oq-gLRM8-vkpct7-31" value="Use" style="edgeLabel;html=1;align=center;verticalAlign=middle;resizable=0;points=[];fontFamily=Helvetica;fontSize=11;fontColor=default;labelBackgroundColor=default;" parent="sPVN3oq-gLRM8-vkpct7-15" vertex="1" connectable="0">
          <mxGeometry x="-0.3625" y="-1" relative="1" as="geometry">
            <mxPoint as="offset" />
          </mxGeometry>
        </mxCell>
        <mxCell id="sPVN3oq-gLRM8-vkpct7-16" value="" style="endArrow=open;html=1;rounded=0;dashed=1;strokeColor=default;strokeWidth=2;align=center;verticalAlign=middle;fontFamily=Helvetica;fontSize=11;fontColor=default;labelBackgroundColor=default;edgeStyle=none;exitX=0.5;exitY=1.067;exitDx=0;exitDy=0;exitPerimeter=0;endFill=0;" parent="1" source="oQIdRqJ1LRzrGyN1kCUl-39" edge="1">
          <mxGeometry width="50" height="50" relative="1" as="geometry">
            <mxPoint x="81" y="1125" as="sourcePoint" />
            <mxPoint x="245" y="1195" as="targetPoint" />
          </mxGeometry>
        </mxCell>
        <mxCell id="sPVN3oq-gLRM8-vkpct7-32" value="Use" style="edgeLabel;html=1;align=center;verticalAlign=middle;resizable=0;points=[];fontFamily=Helvetica;fontSize=11;fontColor=default;labelBackgroundColor=default;" parent="sPVN3oq-gLRM8-vkpct7-16" vertex="1" connectable="0">
          <mxGeometry x="-0.392" relative="1" as="geometry">
            <mxPoint as="offset" />
          </mxGeometry>
        </mxCell>
        <mxCell id="sPVN3oq-gLRM8-vkpct7-18" value="" style="endArrow=open;html=1;rounded=0;dashed=1;strokeColor=default;strokeWidth=2;align=center;verticalAlign=middle;fontFamily=Helvetica;fontSize=11;fontColor=default;labelBackgroundColor=default;edgeStyle=none;endFill=0;exitX=0.5;exitY=1;exitDx=0;exitDy=0;" parent="1" source="oQIdRqJ1LRzrGyN1kCUl-40" edge="1">
          <mxGeometry width="50" height="50" relative="1" as="geometry">
            <mxPoint x="195" y="1163" as="sourcePoint" />
            <mxPoint x="244" y="1194" as="targetPoint" />
          </mxGeometry>
        </mxCell>
        <mxCell id="sPVN3oq-gLRM8-vkpct7-34" value="Use" style="edgeLabel;html=1;align=center;verticalAlign=middle;resizable=0;points=[];fontFamily=Helvetica;fontSize=11;fontColor=default;labelBackgroundColor=default;" parent="sPVN3oq-gLRM8-vkpct7-18" vertex="1" connectable="0">
          <mxGeometry x="0.0289" relative="1" as="geometry">
            <mxPoint as="offset" />
          </mxGeometry>
        </mxCell>
        <mxCell id="sPVN3oq-gLRM8-vkpct7-19" value="" style="endArrow=open;html=1;rounded=0;dashed=1;strokeColor=default;strokeWidth=2;align=center;verticalAlign=middle;fontFamily=Helvetica;fontSize=11;fontColor=default;labelBackgroundColor=default;edgeStyle=none;endFill=0;exitX=0.509;exitY=1.033;exitDx=0;exitDy=0;exitPerimeter=0;entryX=0.5;entryY=0;entryDx=0;entryDy=0;" parent="1" source="oQIdRqJ1LRzrGyN1kCUl-43" target="oQIdRqJ1LRzrGyN1kCUl-60" edge="1">
          <mxGeometry width="50" height="50" relative="1" as="geometry">
            <mxPoint x="609" y="1165" as="sourcePoint" />
            <mxPoint x="659" y="1115" as="targetPoint" />
          </mxGeometry>
        </mxCell>
        <mxCell id="sPVN3oq-gLRM8-vkpct7-35" value="Use" style="edgeLabel;html=1;align=center;verticalAlign=middle;resizable=0;points=[];fontFamily=Helvetica;fontSize=11;fontColor=default;labelBackgroundColor=default;" parent="sPVN3oq-gLRM8-vkpct7-19" vertex="1" connectable="0">
          <mxGeometry x="-0.1175" relative="1" as="geometry">
            <mxPoint as="offset" />
          </mxGeometry>
        </mxCell>
        <mxCell id="sPVN3oq-gLRM8-vkpct7-20" value="" style="endArrow=open;html=1;rounded=0;dashed=1;strokeColor=default;strokeWidth=2;align=center;verticalAlign=middle;fontFamily=Helvetica;fontSize=11;fontColor=default;labelBackgroundColor=default;edgeStyle=none;endFill=0;exitX=0.536;exitY=1.033;exitDx=0;exitDy=0;exitPerimeter=0;entryX=0.666;entryY=-0.004;entryDx=0;entryDy=0;entryPerimeter=0;" parent="1" source="oQIdRqJ1LRzrGyN1kCUl-45" target="oQIdRqJ1LRzrGyN1kCUl-60" edge="1">
          <mxGeometry width="50" height="50" relative="1" as="geometry">
            <mxPoint x="849" y="1161" as="sourcePoint" />
            <mxPoint x="899" y="1111" as="targetPoint" />
          </mxGeometry>
        </mxCell>
        <mxCell id="sPVN3oq-gLRM8-vkpct7-36" value="Use" style="edgeLabel;html=1;align=center;verticalAlign=middle;resizable=0;points=[];fontFamily=Helvetica;fontSize=11;fontColor=default;labelBackgroundColor=default;" parent="sPVN3oq-gLRM8-vkpct7-20" vertex="1" connectable="0">
          <mxGeometry x="0.1826" y="1" relative="1" as="geometry">
            <mxPoint as="offset" />
          </mxGeometry>
        </mxCell>
      </root>
    </mxGraphModel>
  </diagram>
</mxfile>
